<?xml version="1.0" encoding="UTF-8"?>
<svg id="Layer_2" data-name="Layer 2" xmlns="http://www.w3.org/2000/svg" viewBox="0 0 1076.46 270.63">
  <defs>
    <style>
      .cls-1 {
        font-family: Gotham-Bold, Gotham;
        font-size: 185.12px;
        font-weight: 700;
        letter-spacing: -.04em;
      }

      .cls-1, .cls-2 {
        fill: #c87912;
      }

      .cls-3 {
        fill: #010101;
      }

      .cls-4 {
        fill: #fff;
      }

      .cls-5 {
        stroke-dasharray: 0 0 5.08 5.08;
      }

      .cls-5, .cls-6 {
        fill: none;
        stroke: #c87912;
        stroke-miterlimit: 10;
        stroke-width: .5px;
      }
    </style>
  </defs>
  <g id="Layer_1-2" data-name="Layer 1">
    <g>
      <g>
        <text class="cls-1" transform="translate(49.51 182.07)"><tspan x="0" y="0">SIKIA</tspan></text>
        <rect class="cls-2" x="590.93" y="40.72" width="436.02" height="196.41" rx="6.63" ry="6.63"/>
        <g>
          <path class="cls-3" d="M71.76,203.12h-11.01c-1.09,0-2.01-.87-2.01-1.95s.92-2.01,2.01-2.01h26.36c1.08,0,2.01,.92,2.01,2.01s-.92,1.95-2.01,1.95h-11.01v32.11c0,1.19-.98,2.17-2.17,2.17s-2.17-.98-2.17-2.17v-32.11Z"/>
          <path class="cls-3" d="M93.13,199.38c0-1.14,.92-2.11,2.06-2.11s2.12,.98,2.12,2.11v14.59c1.84-3.04,4.77-5.48,9.6-5.48,6.78,0,10.74,4.56,10.74,11.23v15.57c0,1.19-.92,2.11-2.06,2.11s-2.12-.92-2.12-2.11v-14.54c0-5.21-2.82-8.46-7.76-8.46s-8.41,3.53-8.41,8.79v14.21c0,1.19-.87,2.11-2.06,2.11s-2.11-.92-2.11-2.11v-35.91Z"/>
          <path class="cls-3" d="M136.63,237.78c-7.7,0-13.99-5.91-13.99-14.59v-.11c0-8.08,5.69-14.59,13.45-14.59,8.3,0,13.02,6.78,13.02,14.21,0,1.14-.92,1.95-1.95,1.95h-20.29c.6,6.07,4.88,9.49,9.87,9.49,3.47,0,6.02-1.36,8.08-3.25,.33-.27,.7-.49,1.19-.49,1.03,0,1.84,.81,1.84,1.79,0,.49-.22,.98-.65,1.36-2.66,2.55-5.8,4.23-10.58,4.23Zm8.3-16.22c-.43-5.1-3.36-9.55-8.95-9.55-4.88,0-8.57,4.07-9.11,9.55h18.06Z"/>
          <path class="cls-3" d="M169.12,201.06c0-1.19,.98-2.17,2.11-2.17s2.17,.98,2.17,2.17v32.11h19.69c1.09,0,1.95,.92,1.95,2.01s-.87,1.95-1.95,1.95h-21.86c-1.14,0-2.11-.98-2.11-2.17v-33.9Z"/>
          <path class="cls-3" d="M211.54,237.78c-7.7,0-13.99-5.91-13.99-14.59v-.11c0-8.08,5.69-14.59,13.45-14.59,8.3,0,13.02,6.78,13.02,14.21,0,1.14-.92,1.95-1.95,1.95h-20.29c.6,6.07,4.88,9.49,9.87,9.49,3.47,0,6.02-1.36,8.08-3.25,.33-.27,.7-.49,1.19-.49,1.03,0,1.84,.81,1.84,1.79,0,.49-.22,.98-.65,1.36-2.66,2.55-5.8,4.23-10.58,4.23Zm8.3-16.22c-.43-5.1-3.36-9.55-8.95-9.55-4.88,0-8.57,4.07-9.11,9.55h18.06Z"/>
          <path class="cls-3" d="M229.93,242.61c-.65-.32-1.09-.98-1.09-1.74,0-.92,.92-1.84,1.9-1.84,.38,0,.65,.11,.92,.27,2.93,1.95,6.29,3.04,9.93,3.04,6.18,0,10.2-3.42,10.2-9.98v-3.31c-2.44,3.25-5.86,5.91-11.01,5.91-6.73,0-13.18-5.04-13.18-13.13v-.11c0-8.19,6.51-13.23,13.18-13.23,5.26,0,8.68,2.6,10.96,5.64v-3.2c0-1.14,.87-2.12,2.06-2.12s2.12,.98,2.12,2.12v21.32c0,4.34-1.3,7.65-3.58,9.93-2.49,2.49-6.24,3.74-10.69,3.74s-8.19-1.14-11.72-3.31Zm21.97-20.83v-.11c0-5.75-4.99-9.49-10.31-9.49s-9.71,3.69-9.71,9.44v.11c0,5.64,4.5,9.55,9.71,9.55s10.31-3.85,10.31-9.49Z"/>
          <path class="cls-3" d="M260.96,228.99v-.11c0-5.91,4.88-9.06,11.99-9.06,3.58,0,6.13,.49,8.62,1.19v-.98c0-5.04-3.09-7.65-8.35-7.65-2.82,0-5.21,.65-7.27,1.57-.27,.11-.54,.16-.76,.16-.98,0-1.84-.81-1.84-1.79,0-.87,.6-1.52,1.14-1.74,2.77-1.19,5.59-1.9,9.17-1.9,3.96,0,7,1.03,9.06,3.09,1.9,1.9,2.88,4.61,2.88,8.19v15.35c0,1.19-.87,2.06-2.01,2.06s-2.01-.87-2.01-1.95v-2.55c-1.95,2.55-5.21,4.83-10.14,4.83-5.21,0-10.47-2.98-10.47-8.73Zm20.67-2.17v-2.71c-2.06-.6-4.83-1.19-8.24-1.19-5.26,0-8.19,2.28-8.19,5.8v.11c0,3.53,3.25,5.59,7.05,5.59,5.15,0,9.38-3.15,9.38-7.59Z"/>
          <path class="cls-3" d="M292.69,199.38c0-1.14,.92-2.11,2.06-2.11s2.11,.98,2.11,2.11v35.91c0,1.19-.87,2.11-2.06,2.11s-2.12-.92-2.12-2.11v-35.91Z"/>
          <path class="cls-3" d="M316.88,234.31l15.41-33.68c.54-1.19,1.36-1.9,2.71-1.9h.22c1.3,0,2.17,.7,2.66,1.9l15.41,33.63c.16,.38,.27,.76,.27,1.09,0,1.14-.92,2.06-2.06,2.06-1.03,0-1.74-.7-2.12-1.57l-3.96-8.73h-20.83l-3.96,8.84c-.38,.92-1.09,1.46-2.06,1.46-1.09,0-1.95-.87-1.95-1.95,0-.33,.05-.71,.27-1.14Zm26.85-11.12l-8.73-19.42-8.73,19.42h17.47Z"/>
          <path class="cls-3" d="M357.34,234.14c-.38-.27-.76-.81-.76-1.52,0-.98,.81-1.79,1.84-1.79,.38,0,.76,.11,1.03,.33,2.88,1.95,5.86,2.98,8.9,2.98,3.36,0,5.8-1.74,5.8-4.45v-.11c0-2.82-3.31-3.9-7-4.94-4.39-1.25-9.27-2.77-9.27-7.92v-.11c0-4.83,4.01-8.03,9.55-8.03,2.98,0,6.24,.92,8.95,2.39,.54,.32,1.03,.92,1.03,1.74,0,.98-.81,1.79-1.84,1.79-.38,0-.7-.11-.92-.22-2.39-1.36-4.94-2.17-7.32-2.17-3.31,0-5.42,1.74-5.42,4.07v.11c0,2.66,3.47,3.69,7.21,4.83,4.34,1.3,9,2.98,9,8.03v.11c0,5.32-4.39,8.41-9.98,8.41-3.69,0-7.76-1.36-10.79-3.53Z"/>
          <path class="cls-3" d="M381.65,234.14c-.38-.27-.76-.81-.76-1.52,0-.98,.81-1.79,1.84-1.79,.38,0,.76,.11,1.03,.33,2.88,1.95,5.86,2.98,8.9,2.98,3.36,0,5.8-1.74,5.8-4.45v-.11c0-2.82-3.31-3.9-7-4.94-4.39-1.25-9.27-2.77-9.27-7.92v-.11c0-4.83,4.01-8.03,9.55-8.03,2.98,0,6.24,.92,8.95,2.39,.54,.32,1.03,.92,1.03,1.74,0,.98-.81,1.79-1.84,1.79-.38,0-.7-.11-.92-.22-2.39-1.36-4.94-2.17-7.32-2.17-3.31,0-5.42,1.74-5.42,4.07v.11c0,2.66,3.47,3.69,7.21,4.83,4.34,1.3,9,2.98,9,8.03v.11c0,5.32-4.39,8.41-9.98,8.41-3.69,0-7.76-1.36-10.79-3.53Z"/>
          <path class="cls-3" d="M408.01,200.3c0-1.36,1.08-2.22,2.44-2.22s2.49,.87,2.49,2.22v.7c0,1.3-1.09,2.22-2.49,2.22s-2.44-.92-2.44-2.22v-.7Zm.38,10.63c0-1.14,.92-2.12,2.06-2.12s2.11,.92,2.11,2.12v24.35c0,1.19-.87,2.11-2.06,2.11s-2.12-.92-2.12-2.11v-24.35Z"/>
          <path class="cls-3" d="M418.58,234.14c-.38-.27-.76-.81-.76-1.52,0-.98,.81-1.79,1.84-1.79,.38,0,.76,.11,1.03,.33,2.88,1.95,5.86,2.98,8.9,2.98,3.36,0,5.8-1.74,5.8-4.45v-.11c0-2.82-3.31-3.9-7-4.94-4.39-1.25-9.27-2.77-9.27-7.92v-.11c0-4.83,4.01-8.03,9.55-8.03,2.98,0,6.24,.92,8.95,2.39,.54,.32,1.03,.92,1.03,1.74,0,.98-.81,1.79-1.84,1.79-.38,0-.7-.11-.92-.22-2.39-1.36-4.94-2.17-7.32-2.17-3.31,0-5.42,1.74-5.42,4.07v.11c0,2.66,3.47,3.69,7.21,4.83,4.34,1.3,9,2.98,9,8.03v.11c0,5.32-4.39,8.41-9.98,8.41-3.69,0-7.76-1.36-10.79-3.53Z"/>
          <path class="cls-3" d="M445.87,229.7v-16.92h-2.28c-.98,0-1.84-.87-1.84-1.84,0-1.03,.87-1.84,1.84-1.84h2.28v-6.62c0-1.14,.87-2.12,2.06-2.12s2.11,.98,2.11,2.12v6.62h7.27c1.03,0,1.9,.87,1.9,1.84,0,1.03-.87,1.84-1.9,1.84h-7.27v16.38c0,3.42,1.9,4.67,4.72,4.67,1.46,0,2.22-.38,2.55-.38,.98,0,1.79,.81,1.79,1.79,0,.76-.49,1.36-1.19,1.63-1.19,.49-2.49,.76-4.12,.76-4.5,0-7.92-2.22-7.92-7.92Z"/>
          <path class="cls-3" d="M462.03,228.99v-.11c0-5.91,4.88-9.06,11.99-9.06,3.58,0,6.13,.49,8.62,1.19v-.98c0-5.04-3.09-7.65-8.35-7.65-2.82,0-5.21,.65-7.27,1.57-.27,.11-.54,.16-.76,.16-.98,0-1.84-.81-1.84-1.79,0-.87,.6-1.52,1.14-1.74,2.77-1.19,5.59-1.9,9.17-1.9,3.96,0,7,1.03,9.06,3.09,1.9,1.9,2.88,4.61,2.88,8.19v15.35c0,1.19-.87,2.06-2.01,2.06s-2.01-.87-2.01-1.95v-2.55c-1.95,2.55-5.21,4.83-10.14,4.83-5.21,0-10.47-2.98-10.47-8.73Zm20.67-2.17v-2.71c-2.06-.6-4.83-1.19-8.24-1.19-5.26,0-8.19,2.28-8.19,5.8v.11c0,3.53,3.25,5.59,7.05,5.59,5.15,0,9.38-3.15,9.38-7.59Z"/>
          <path class="cls-3" d="M493.38,210.93c0-1.14,.92-2.12,2.06-2.12s2.12,.92,2.12,2.12v3.04c1.84-3.04,4.77-5.48,9.6-5.48,6.78,0,10.74,4.56,10.74,11.23v15.57c0,1.19-.92,2.11-2.06,2.11s-2.12-.92-2.12-2.11v-14.54c0-5.21-2.82-8.46-7.76-8.46s-8.41,3.53-8.41,8.79v14.21c0,1.19-.87,2.11-2.06,2.11s-2.11-.92-2.11-2.11v-24.35Z"/>
          <path class="cls-3" d="M526.09,229.7v-16.92h-2.28c-.98,0-1.84-.87-1.84-1.84,0-1.03,.87-1.84,1.84-1.84h2.28v-6.62c0-1.14,.87-2.12,2.06-2.12s2.11,.98,2.11,2.12v6.62h7.27c1.03,0,1.9,.87,1.9,1.84,0,1.03-.87,1.84-1.9,1.84h-7.27v16.38c0,3.42,1.9,4.67,4.72,4.67,1.46,0,2.22-.38,2.55-.38,.98,0,1.79,.81,1.79,1.79,0,.76-.49,1.36-1.19,1.63-1.19,.49-2.49,.76-4.12,.76-4.5,0-7.92-2.22-7.92-7.92Z"/>
        </g>
        <g>
          <path class="cls-4" d="M640.42,204.77h55.37v8.06h-64.92V63.91h9.55V204.77Z"/>
          <path class="cls-4" d="M710.11,123.94c4.74-8.91,11.31-15.77,19.73-20.58,8.41-4.81,18-7.21,28.74-7.21,12.16,0,22.49,2.97,30.97,8.91,8.49,5.94,14.43,13.51,17.82,22.7v-30.12h9.55v115.19h-9.55v-30.34c-3.39,9.33-9.37,17.01-17.93,23.02-8.56,6.01-18.85,9.02-30.87,9.02-10.75,0-20.33-2.44-28.74-7.32-8.42-4.88-14.99-11.81-19.73-20.79-4.74-8.98-7.11-19.41-7.11-31.29s2.37-22.27,7.11-31.18Zm91.01,4.56c-4.17-7.71-9.86-13.65-17.08-17.82-7.21-4.17-15.27-6.26-24.18-6.26s-17.54,2.01-24.61,6.05c-7.07,4.03-12.59,9.86-16.55,17.5-3.96,7.64-5.94,16.69-5.94,27.15s1.98,19.52,5.94,27.15c3.96,7.64,9.51,13.51,16.65,17.61,7.14,4.1,15.31,6.15,24.5,6.15s17.01-2.08,24.29-6.26c7.28-4.17,12.97-10.11,17.08-17.82,4.1-7.71,6.15-16.65,6.15-26.84s-2.09-18.91-6.26-26.62Z"/>
          <path class="cls-4" d="M993.85,97.64l-36.28,115.19h-9.12l-36.7-102.04-36.91,102.04h-9.12l-36.28-115.19h9.97l30.97,104.37,36.91-104.37h9.12l36.7,103.95,30.97-103.95h9.76Z"/>
        </g>
        <g>
          <line class="cls-6" x1="565.5" y1="40.72" x2="565.5" y2="43.22"/>
          <line class="cls-5" x1="565.5" y1="48.29" x2="565.5" y2="238.64"/>
          <line class="cls-6" x1="565.5" y1="241.18" x2="565.5" y2="243.68"/>
        </g>
      </g>
    </g>
  </g>
</svg>